#!OML:ASF F:\VICON\USERDATA\INSTALL\rory3\rory3.ASF
:FULLY-SPECIFIED
:DEGREES
111
root -5.575702784903129 18.024500790669475 -1.7126889808820098 -176.21566879363388 -2.656648020296352 -186.3512343148529
lfemur -31.41384057168873 -19.953920355223854 -11.37932595940104
ltibia 26.8239924870855
lfoot 38.980504054963745 -45.779448913231064
ltoes 60.186045737908486
rfemur 14.171155834287685 -5.841365239789611 20.806588710509295
rtibia 19.59140397582087
rfoot 28.738882421205517 -28.776529763694775
rtoes 17.25038697306816
lowerback -5.98940078917517 11.40668885256765 11.50915238823348
upperback -9.199968039282403 16.33980270209105 1.9907398484130336
thorax -5.084372908306387 8.106686301039064 -3.2439671420528624
lowerneck -20.018456238690028 -14.343035636321307 -1.4238628025428457
upperneck 5.247141754242776 -19.16886230409152 3.1540382286497737
head 4.8573804168680255 -9.093563970893845 -0.9142962737895386
lclavicle -7.51436377815744e-15 -5.515200347021514e-15
lhumerus 53.28601962068443 2.5454157431426125 67.15251999035682
lradius 39.462548232060996
lwrist 32.65650057143248
lhand -11.114999449113842 14.455648416307016
lfingers 7.125020000000003
lthumb -165.10278679800945 367.2767679203191
rclavicle -7.51436377815744e-15 -5.5152003470215145e-15
rhumerus 80.98856803535526 30.963779976085682 -67.04453521292298
rradius 35.29005891499223
rwrist -12.124917631912632
rhand -37.75436304590116 18.884603402728533
rfingers 7.125020000000003
rthumb -10.799584062868654 -10.447269326080477
112
root -5.560603297445904 18.02759614420734 -1.6911320564882475 -176.68933588163367 -2.557145758500802 -186.8921300581066
lfemur -31.467754418210816 -19.966656086805507 -11.382204047415012
ltibia 26.62824295970372
lfoot 38.53203974600905 -46.245437884743964
ltoes 59.942015974067786
rfemur 13.942009291926581 -5.855282230807008 20.685643511731485
rtibia 19.690022886342685
rfoot 28.46189191805592 -28.685339776653343
rtoes 16.973693930144336
lowerback -5.956730755718626 11.393550362542324 11.228052767308293
upperback -9.078630005759521 16.22631801189016 1.9245768912736192
thorax -5.02754196166198 8.02617828804132 -3.1993455206271078
lowerneck -20.21736494363391 -14.254030076820504 -1.5453206463975389
upperneck 5.131784697133156 -19.040102131217775 3.1770787297662286
head 4.879568387938187 -9.022132510419672 -0.8784413144776211
lclavicle -7.836238422079649e-15 -5.7434987272154265e-15
lhumerus 51.69902820922154 2.4035469989894622 68.81469186338688
lradius 38.80993357520714
lwrist 32.3970268862089
lhand -11.023340773901094 14.52472415832334
lfingers 7.125020000000003
lthumb -165.01475625242512 367.65306611613744
rclavicle -7.836238422079649e-15 -5.7434987272154265e-15
rhumerus 78.1239174138485 30.649083373315413 -68.58050877394916
rradius 34.304522295288635
rwrist -11.875234633964245
rhand -37.46072661123244 18.377887054489626
rfingers 7.125020000000003
rthumb -10.516503910197294 -10.949753242128937
113
root -5.542112423657436 18.030444270795435 -1.6464265666384188 -175.8171435459211 -2.17823642390276 -186.11264439921015
lfemur -31.327714809561506 -19.821080736538313 -11.279580637685836
ltibia 26.470971085767847
lfoot 38.114422690555635 -46.40727242266033
ltoes 59.87116879495025
rfemur 13.795478124219699 -5.749147241661438 20.66008305732764
rtibia 19.857956575405215
rfoot 28.382210044818926 -28.335276257791868
rtoes 16.65397503787667
lowerback -5.8565529466076525 11.458994869716602 11.039674338027575
upperback -8.935001167080308 16.221722639161893 1.8821524093443678
thorax -4.959044315706588 7.990229472935917 -3.1317485063947004
lowerneck -20.298889002699205 -13.987751214452258 -1.627304918409515
upperneck 5.119675673435022 -18.663553479472693 3.2367793360749975
head 4.943946134081735 -8.836931350625196 -0.8297905406135343
lclavicle -7.563797057124895e-15 -5.551028546249686e-15
lhumerus 50.64838464855558 2.6993474930657406 70.49673047614439
lradius 38.35482648578938
lwrist 32.26481693889631
lhand -10.944058771028269 14.761876402210307
lfingers 7.125020000000003
lthumb -164.9394464221886 366.90200808820174
rclavicle -7.563797057124895e-15 -5.551028546249686e-15
rhumerus 75.72725423480296 30.26717817321584 -69.99165955994188
rradius 33.66215232155417
rwrist -11.290110612697994
rhand -36.986007288306936 18.0095987029302
rfingers 7.125020000000003
rthumb -10.059461458460898 -11.328371138905764
114
root -5.5264806042454655 18.03327629778842 -1.6099103434299034 -175.7028629236903 -1.9341112961967504 -186.05128585201257
lfemur -31.211207890371504 -19.767640863736432 -11.147658068128054
ltibia 26.29713579037561
lfoot 37.72318953849705 -46.66486049630883
ltoes 59.86681797570664
rfemur 13.787189203831488 -5.699586925250695 20.648447701395295
rtibia 19.998120047855814
rfoot 28.358000462580968 -28.02487789088955
rtoes 16.340362279627005
lowerback -5.820003623184901 11.53097032727359 10.896281907047605
upperback -8.797654605041405 16.249468658953038 1.85278439034968
thorax -4.876691464862655 7.9846734287409875 -3.0658162803965103
lowerneck -20.37622492958926 -13.756425187839659 -1.6977089338038833
upperneck 5.105391964807829 -18.343499106650864 3.3186791623560605
head 4.992367595322235 -8.677774207533442 -0.7857693650720105
lclavicle -7.281392857329488e-15 -5.35057431103823e-15
lhumerus 49.51741112420328 2.921410681255022 72.10348229217122
lradius 37.913198011595206
lwrist 32.13370932364255
lhand -10.905180113065894 15.014504788605556
lfingers 7.125020000000003
lthumb -164.90241416654925 370.7889422103682
rclavicle -7.281392857329488e-15 -5.35057431103823e-15
rhumerus 73.32306340266275 29.998357834024112 -71.3655478630523
rradius 32.962610428307755
rwrist -10.821431083369117
rhand -36.60287029961282 17.661607773093355
rfingers 7.125020000000003
rthumb -9.690670443829276 -11.674077071444268
